<mxfile host="app.diagrams.net" modified="2021-04-30T10:14:42.533Z" agent="5.0 (Windows NT 10.0; Win64; x64) AppleWebKit/537.36 (KHTML, like Gecko) Chrome/90.0.4430.93 Safari/537.36" etag="aC83ja-1-N8OGGatZelK" version="14.5.10" type="github">
  <diagram id="_s7QKAvfT2Q2DRemvRqb" name="Page-1">
    <mxGraphModel dx="1118" dy="461" grid="1" gridSize="10" guides="1" tooltips="1" connect="1" arrows="1" fold="1" page="1" pageScale="1" pageWidth="1169" pageHeight="827" math="0" shadow="0">
      <root>
        <mxCell id="0" />
        <mxCell id="1" parent="0" />
        <mxCell id="jPB4N90SwIAx0oUlpZZX-1" value="" style="rounded=1;whiteSpace=wrap;html=1;arcSize=6;strokeColor=#37465B;dashed=1;dashPattern=1 1;" vertex="1" parent="1">
          <mxGeometry x="120" y="370" width="440" height="200" as="geometry" />
        </mxCell>
        <mxCell id="jPB4N90SwIAx0oUlpZZX-125" value="" style="rounded=0;whiteSpace=wrap;html=1;dashed=1;fontSize=12;fontColor=#212B38;strokeColor=none;rotation=-48;" vertex="1" parent="1">
          <mxGeometry x="552" y="470" width="20" height="10" as="geometry" />
        </mxCell>
        <mxCell id="jPB4N90SwIAx0oUlpZZX-18" style="edgeStyle=orthogonalEdgeStyle;rounded=0;orthogonalLoop=1;jettySize=auto;html=1;exitX=0.5;exitY=0;exitDx=0;exitDy=0;fontSize=20;strokeColor=#212B38;entryX=0.5;entryY=1;entryDx=0;entryDy=0;" edge="1" parent="1" source="jPB4N90SwIAx0oUlpZZX-12" target="jPB4N90SwIAx0oUlpZZX-84">
          <mxGeometry relative="1" as="geometry">
            <mxPoint x="165" y="310" as="targetPoint" />
          </mxGeometry>
        </mxCell>
        <mxCell id="jPB4N90SwIAx0oUlpZZX-19" style="edgeStyle=orthogonalEdgeStyle;rounded=0;orthogonalLoop=1;jettySize=auto;html=1;exitX=0.5;exitY=0;exitDx=0;exitDy=0;fontSize=20;fontColor=#212B38;strokeColor=#212B38;entryX=0.5;entryY=1;entryDx=0;entryDy=0;" edge="1" parent="1" source="jPB4N90SwIAx0oUlpZZX-13" target="jPB4N90SwIAx0oUlpZZX-91">
          <mxGeometry relative="1" as="geometry">
            <mxPoint x="225" y="310" as="targetPoint" />
          </mxGeometry>
        </mxCell>
        <mxCell id="jPB4N90SwIAx0oUlpZZX-20" style="edgeStyle=orthogonalEdgeStyle;rounded=0;orthogonalLoop=1;jettySize=auto;html=1;exitX=0.5;exitY=0;exitDx=0;exitDy=0;fontSize=20;fontColor=#212B38;strokeColor=#212B38;entryX=0.5;entryY=1;entryDx=0;entryDy=0;" edge="1" parent="1" source="jPB4N90SwIAx0oUlpZZX-14" target="jPB4N90SwIAx0oUlpZZX-98">
          <mxGeometry relative="1" as="geometry">
            <mxPoint x="285" y="310" as="targetPoint" />
          </mxGeometry>
        </mxCell>
        <mxCell id="jPB4N90SwIAx0oUlpZZX-21" style="edgeStyle=orthogonalEdgeStyle;rounded=0;orthogonalLoop=1;jettySize=auto;html=1;exitX=0.5;exitY=0;exitDx=0;exitDy=0;fontSize=20;fontColor=#212B38;strokeColor=#212B38;entryX=0.5;entryY=1;entryDx=0;entryDy=0;" edge="1" parent="1" source="jPB4N90SwIAx0oUlpZZX-15" target="jPB4N90SwIAx0oUlpZZX-105">
          <mxGeometry relative="1" as="geometry">
            <mxPoint x="345" y="310" as="targetPoint" />
          </mxGeometry>
        </mxCell>
        <mxCell id="jPB4N90SwIAx0oUlpZZX-22" style="edgeStyle=orthogonalEdgeStyle;rounded=0;orthogonalLoop=1;jettySize=auto;html=1;exitX=0.5;exitY=0;exitDx=0;exitDy=0;fontSize=20;fontColor=#212B38;strokeColor=#212B38;entryX=0.5;entryY=1;entryDx=0;entryDy=0;" edge="1" parent="1" source="jPB4N90SwIAx0oUlpZZX-16" target="jPB4N90SwIAx0oUlpZZX-113">
          <mxGeometry relative="1" as="geometry">
            <mxPoint x="515" y="310" as="targetPoint" />
          </mxGeometry>
        </mxCell>
        <mxCell id="jPB4N90SwIAx0oUlpZZX-38" value="" style="endArrow=classic;startArrow=classic;html=1;fontSize=20;fontColor=#212B38;strokeColor=#212B38;" edge="1" parent="1">
          <mxGeometry width="50" height="50" relative="1" as="geometry">
            <mxPoint x="600" y="440" as="sourcePoint" />
            <mxPoint x="700" y="440" as="targetPoint" />
          </mxGeometry>
        </mxCell>
        <mxCell id="jPB4N90SwIAx0oUlpZZX-39" value="&lt;font style=&quot;font-size: 12px;&quot;&gt;768&lt;/font&gt;" style="edgeLabel;html=1;align=center;verticalAlign=middle;resizable=0;points=[];fontSize=12;fontColor=#212B38;" vertex="1" connectable="0" parent="jPB4N90SwIAx0oUlpZZX-38">
          <mxGeometry x="0.1635" y="1" relative="1" as="geometry">
            <mxPoint x="-7" as="offset" />
          </mxGeometry>
        </mxCell>
        <mxCell id="jPB4N90SwIAx0oUlpZZX-3" value="Encoder" style="rounded=1;whiteSpace=wrap;html=1;fontColor=#212B38;strokeColor=#ED553B;" vertex="1" parent="1">
          <mxGeometry x="140" y="520" width="400" height="30" as="geometry" />
        </mxCell>
        <mxCell id="jPB4N90SwIAx0oUlpZZX-4" value="Encoder" style="rounded=1;whiteSpace=wrap;html=1;fontColor=#212B38;fillColor=#FFFFFF;strokeColor=#ED553B;" vertex="1" parent="1">
          <mxGeometry x="140" y="460" width="400" height="28" as="geometry" />
        </mxCell>
        <mxCell id="jPB4N90SwIAx0oUlpZZX-6" value="Encoder" style="rounded=1;whiteSpace=wrap;html=1;fillColor=#FFFFFF;fontColor=#212B38;strokeColor=#ED553B;" vertex="1" parent="1">
          <mxGeometry x="140" y="390" width="400" height="30" as="geometry" />
        </mxCell>
        <mxCell id="jPB4N90SwIAx0oUlpZZX-7" value="1" style="text;html=1;strokeColor=none;fillColor=none;align=center;verticalAlign=middle;whiteSpace=wrap;rounded=0;" vertex="1" parent="1">
          <mxGeometry x="90" y="525" width="20" height="20" as="geometry" />
        </mxCell>
        <mxCell id="jPB4N90SwIAx0oUlpZZX-8" value="2" style="text;html=1;strokeColor=none;fillColor=none;align=center;verticalAlign=middle;whiteSpace=wrap;rounded=0;" vertex="1" parent="1">
          <mxGeometry x="90" y="464" width="20" height="20" as="geometry" />
        </mxCell>
        <mxCell id="jPB4N90SwIAx0oUlpZZX-9" value="12" style="text;html=1;strokeColor=none;fillColor=none;align=center;verticalAlign=middle;whiteSpace=wrap;rounded=0;" vertex="1" parent="1">
          <mxGeometry x="90" y="395" width="20" height="20" as="geometry" />
        </mxCell>
        <mxCell id="jPB4N90SwIAx0oUlpZZX-10" value="&lt;font style=&quot;font-size: 24px&quot;&gt;...&lt;/font&gt;" style="text;html=1;strokeColor=none;fillColor=none;align=center;verticalAlign=middle;whiteSpace=wrap;rounded=0;" vertex="1" parent="1">
          <mxGeometry x="405" y="420" width="40" height="30" as="geometry" />
        </mxCell>
        <mxCell id="jPB4N90SwIAx0oUlpZZX-140" style="edgeStyle=orthogonalEdgeStyle;rounded=0;orthogonalLoop=1;jettySize=auto;html=1;exitX=0.5;exitY=0;exitDx=0;exitDy=0;entryX=0.5;entryY=1;entryDx=0;entryDy=0;fontSize=12;fontColor=#212B38;strokeColor=#212B38;strokeWidth=1;" edge="1" parent="1" source="jPB4N90SwIAx0oUlpZZX-11" target="jPB4N90SwIAx0oUlpZZX-139">
          <mxGeometry relative="1" as="geometry" />
        </mxCell>
        <mxCell id="jPB4N90SwIAx0oUlpZZX-11" value="&quot;He found a leprechaun in his walnut shell.&quot;" style="text;html=1;strokeColor=none;fillColor=none;align=center;verticalAlign=middle;whiteSpace=wrap;rounded=0;fontColor=#212B38;" vertex="1" parent="1">
          <mxGeometry x="165" y="690" width="350" height="20" as="geometry" />
        </mxCell>
        <mxCell id="jPB4N90SwIAx0oUlpZZX-12" value="[CLS]" style="text;html=1;strokeColor=none;fillColor=none;align=center;verticalAlign=middle;whiteSpace=wrap;rounded=0;fontColor=#212B38;" vertex="1" parent="1">
          <mxGeometry x="140" y="593" width="50" height="20" as="geometry" />
        </mxCell>
        <mxCell id="jPB4N90SwIAx0oUlpZZX-13" value="He" style="text;html=1;strokeColor=none;fillColor=none;align=center;verticalAlign=middle;whiteSpace=wrap;rounded=0;fontColor=#212B38;" vertex="1" parent="1">
          <mxGeometry x="200" y="593" width="50" height="20" as="geometry" />
        </mxCell>
        <mxCell id="jPB4N90SwIAx0oUlpZZX-14" value="found" style="text;html=1;strokeColor=none;fillColor=none;align=center;verticalAlign=middle;whiteSpace=wrap;rounded=0;fontColor=#212B38;" vertex="1" parent="1">
          <mxGeometry x="260" y="593" width="50" height="20" as="geometry" />
        </mxCell>
        <mxCell id="jPB4N90SwIAx0oUlpZZX-15" value="a" style="text;html=1;strokeColor=none;fillColor=none;align=center;verticalAlign=middle;whiteSpace=wrap;rounded=0;fontColor=#212B38;" vertex="1" parent="1">
          <mxGeometry x="320" y="593" width="50" height="20" as="geometry" />
        </mxCell>
        <mxCell id="jPB4N90SwIAx0oUlpZZX-16" value="[PAD]" style="text;html=1;strokeColor=none;fillColor=none;align=center;verticalAlign=middle;whiteSpace=wrap;rounded=0;fontColor=#212B38;" vertex="1" parent="1">
          <mxGeometry x="490" y="593" width="50" height="20" as="geometry" />
        </mxCell>
        <mxCell id="jPB4N90SwIAx0oUlpZZX-17" value="..." style="text;html=1;strokeColor=none;fillColor=none;align=center;verticalAlign=middle;whiteSpace=wrap;rounded=0;fontSize=20;fontColor=#212B38;" vertex="1" parent="1">
          <mxGeometry x="405" y="580" width="50" height="33" as="geometry" />
        </mxCell>
        <mxCell id="jPB4N90SwIAx0oUlpZZX-48" value="" style="group;strokeColor=#FFFFFF;fillColor=#08C6AB;" vertex="1" connectable="0" parent="1">
          <mxGeometry x="140" y="500" width="50" height="10" as="geometry" />
        </mxCell>
        <mxCell id="jPB4N90SwIAx0oUlpZZX-40" value="" style="group;strokeColor=#FFFFFF;fillColor=#08C6AB;" vertex="1" connectable="0" parent="jPB4N90SwIAx0oUlpZZX-48">
          <mxGeometry width="40" height="10" as="geometry" />
        </mxCell>
        <mxCell id="jPB4N90SwIAx0oUlpZZX-41" value="" style="rounded=0;whiteSpace=wrap;html=1;fontSize=20;fontColor=#212B38;strokeColor=#FFFFFF;fillColor=#08C6AB;" vertex="1" parent="jPB4N90SwIAx0oUlpZZX-40">
          <mxGeometry width="10" height="10" as="geometry" />
        </mxCell>
        <mxCell id="jPB4N90SwIAx0oUlpZZX-42" value="" style="rounded=0;whiteSpace=wrap;html=1;fontSize=20;fontColor=#212B38;strokeColor=#FFFFFF;fillColor=#08C6AB;" vertex="1" parent="jPB4N90SwIAx0oUlpZZX-40">
          <mxGeometry x="10" width="10" height="10" as="geometry" />
        </mxCell>
        <mxCell id="jPB4N90SwIAx0oUlpZZX-43" value="" style="rounded=0;whiteSpace=wrap;html=1;fontSize=20;fontColor=#212B38;strokeColor=#FFFFFF;fillColor=#08C6AB;" vertex="1" parent="jPB4N90SwIAx0oUlpZZX-40">
          <mxGeometry x="20" width="10" height="10" as="geometry" />
        </mxCell>
        <mxCell id="jPB4N90SwIAx0oUlpZZX-44" value="" style="rounded=0;whiteSpace=wrap;html=1;fontSize=20;fontColor=#212B38;strokeColor=#FFFFFF;fillColor=#08C6AB;" vertex="1" parent="jPB4N90SwIAx0oUlpZZX-40">
          <mxGeometry x="30" width="10" height="10" as="geometry" />
        </mxCell>
        <mxCell id="jPB4N90SwIAx0oUlpZZX-47" value="" style="rounded=0;whiteSpace=wrap;html=1;fontSize=20;fontColor=#212B38;strokeColor=#FFFFFF;fillColor=#08C6AB;" vertex="1" parent="jPB4N90SwIAx0oUlpZZX-48">
          <mxGeometry x="40" width="10" height="10" as="geometry" />
        </mxCell>
        <mxCell id="jPB4N90SwIAx0oUlpZZX-49" value="" style="group;strokeColor=#FFFFFF;fillColor=#08C6AB;" vertex="1" connectable="0" parent="1">
          <mxGeometry x="200" y="500" width="50" height="10" as="geometry" />
        </mxCell>
        <mxCell id="jPB4N90SwIAx0oUlpZZX-50" value="" style="group;strokeColor=#FFFFFF;fillColor=#08C6AB;" vertex="1" connectable="0" parent="jPB4N90SwIAx0oUlpZZX-49">
          <mxGeometry width="40" height="10" as="geometry" />
        </mxCell>
        <mxCell id="jPB4N90SwIAx0oUlpZZX-51" value="" style="rounded=0;whiteSpace=wrap;html=1;fontSize=20;fontColor=#212B38;strokeColor=#FFFFFF;fillColor=#08C6AB;" vertex="1" parent="jPB4N90SwIAx0oUlpZZX-50">
          <mxGeometry width="10" height="10" as="geometry" />
        </mxCell>
        <mxCell id="jPB4N90SwIAx0oUlpZZX-52" value="" style="rounded=0;whiteSpace=wrap;html=1;fontSize=20;fontColor=#212B38;strokeColor=#FFFFFF;fillColor=#08C6AB;" vertex="1" parent="jPB4N90SwIAx0oUlpZZX-50">
          <mxGeometry x="10" width="10" height="10" as="geometry" />
        </mxCell>
        <mxCell id="jPB4N90SwIAx0oUlpZZX-53" value="" style="rounded=0;whiteSpace=wrap;html=1;fontSize=20;fontColor=#212B38;strokeColor=#FFFFFF;fillColor=#08C6AB;" vertex="1" parent="jPB4N90SwIAx0oUlpZZX-50">
          <mxGeometry x="20" width="10" height="10" as="geometry" />
        </mxCell>
        <mxCell id="jPB4N90SwIAx0oUlpZZX-54" value="" style="rounded=0;whiteSpace=wrap;html=1;fontSize=20;fontColor=#212B38;strokeColor=#FFFFFF;fillColor=#08C6AB;" vertex="1" parent="jPB4N90SwIAx0oUlpZZX-50">
          <mxGeometry x="30" width="10" height="10" as="geometry" />
        </mxCell>
        <mxCell id="jPB4N90SwIAx0oUlpZZX-55" value="" style="rounded=0;whiteSpace=wrap;html=1;fontSize=20;fontColor=#212B38;strokeColor=#FFFFFF;fillColor=#08C6AB;" vertex="1" parent="jPB4N90SwIAx0oUlpZZX-49">
          <mxGeometry x="40" width="10" height="10" as="geometry" />
        </mxCell>
        <mxCell id="jPB4N90SwIAx0oUlpZZX-56" value="" style="group;strokeColor=#FFFFFF;fillColor=#08C6AB;" vertex="1" connectable="0" parent="1">
          <mxGeometry x="260" y="500" width="50" height="10" as="geometry" />
        </mxCell>
        <mxCell id="jPB4N90SwIAx0oUlpZZX-57" value="" style="group;strokeColor=#FFFFFF;fillColor=#08C6AB;" vertex="1" connectable="0" parent="jPB4N90SwIAx0oUlpZZX-56">
          <mxGeometry width="40" height="10" as="geometry" />
        </mxCell>
        <mxCell id="jPB4N90SwIAx0oUlpZZX-58" value="" style="rounded=0;whiteSpace=wrap;html=1;fontSize=20;fontColor=#212B38;strokeColor=#FFFFFF;fillColor=#08C6AB;" vertex="1" parent="jPB4N90SwIAx0oUlpZZX-57">
          <mxGeometry width="10" height="10" as="geometry" />
        </mxCell>
        <mxCell id="jPB4N90SwIAx0oUlpZZX-59" value="" style="rounded=0;whiteSpace=wrap;html=1;fontSize=20;fontColor=#212B38;strokeColor=#FFFFFF;fillColor=#08C6AB;" vertex="1" parent="jPB4N90SwIAx0oUlpZZX-57">
          <mxGeometry x="10" width="10" height="10" as="geometry" />
        </mxCell>
        <mxCell id="jPB4N90SwIAx0oUlpZZX-60" value="" style="rounded=0;whiteSpace=wrap;html=1;fontSize=20;fontColor=#212B38;strokeColor=#FFFFFF;fillColor=#08C6AB;" vertex="1" parent="jPB4N90SwIAx0oUlpZZX-57">
          <mxGeometry x="20" width="10" height="10" as="geometry" />
        </mxCell>
        <mxCell id="jPB4N90SwIAx0oUlpZZX-61" value="" style="rounded=0;whiteSpace=wrap;html=1;fontSize=20;fontColor=#212B38;strokeColor=#FFFFFF;fillColor=#08C6AB;" vertex="1" parent="jPB4N90SwIAx0oUlpZZX-57">
          <mxGeometry x="30" width="10" height="10" as="geometry" />
        </mxCell>
        <mxCell id="jPB4N90SwIAx0oUlpZZX-62" value="" style="rounded=0;whiteSpace=wrap;html=1;fontSize=20;fontColor=#212B38;strokeColor=#FFFFFF;fillColor=#08C6AB;" vertex="1" parent="jPB4N90SwIAx0oUlpZZX-56">
          <mxGeometry x="40" width="10" height="10" as="geometry" />
        </mxCell>
        <mxCell id="jPB4N90SwIAx0oUlpZZX-63" value="" style="group;strokeColor=#FFFFFF;fillColor=#08C6AB;" vertex="1" connectable="0" parent="1">
          <mxGeometry x="320" y="500" width="50" height="10" as="geometry" />
        </mxCell>
        <mxCell id="jPB4N90SwIAx0oUlpZZX-64" value="" style="group;strokeColor=#FFFFFF;fillColor=#08C6AB;" vertex="1" connectable="0" parent="jPB4N90SwIAx0oUlpZZX-63">
          <mxGeometry width="40" height="10" as="geometry" />
        </mxCell>
        <mxCell id="jPB4N90SwIAx0oUlpZZX-65" value="" style="rounded=0;whiteSpace=wrap;html=1;fontSize=20;fontColor=#212B38;strokeColor=#FFFFFF;fillColor=#08C6AB;" vertex="1" parent="jPB4N90SwIAx0oUlpZZX-64">
          <mxGeometry width="10" height="10" as="geometry" />
        </mxCell>
        <mxCell id="jPB4N90SwIAx0oUlpZZX-66" value="" style="rounded=0;whiteSpace=wrap;html=1;fontSize=20;fontColor=#212B38;strokeColor=#FFFFFF;fillColor=#08C6AB;" vertex="1" parent="jPB4N90SwIAx0oUlpZZX-64">
          <mxGeometry x="10" width="10" height="10" as="geometry" />
        </mxCell>
        <mxCell id="jPB4N90SwIAx0oUlpZZX-67" value="" style="rounded=0;whiteSpace=wrap;html=1;fontSize=20;fontColor=#212B38;strokeColor=#FFFFFF;fillColor=#08C6AB;" vertex="1" parent="jPB4N90SwIAx0oUlpZZX-64">
          <mxGeometry x="20" width="10" height="10" as="geometry" />
        </mxCell>
        <mxCell id="jPB4N90SwIAx0oUlpZZX-68" value="" style="rounded=0;whiteSpace=wrap;html=1;fontSize=20;fontColor=#212B38;strokeColor=#FFFFFF;fillColor=#08C6AB;" vertex="1" parent="jPB4N90SwIAx0oUlpZZX-64">
          <mxGeometry x="30" width="10" height="10" as="geometry" />
        </mxCell>
        <mxCell id="jPB4N90SwIAx0oUlpZZX-69" value="" style="rounded=0;whiteSpace=wrap;html=1;fontSize=20;fontColor=#212B38;strokeColor=#FFFFFF;fillColor=#08C6AB;" vertex="1" parent="jPB4N90SwIAx0oUlpZZX-63">
          <mxGeometry x="40" width="10" height="10" as="geometry" />
        </mxCell>
        <mxCell id="jPB4N90SwIAx0oUlpZZX-70" value="" style="group;strokeColor=#FFFFFF;fillColor=#08C6AB;" vertex="1" connectable="0" parent="1">
          <mxGeometry x="490" y="500" width="50" height="10" as="geometry" />
        </mxCell>
        <mxCell id="jPB4N90SwIAx0oUlpZZX-71" value="" style="group;strokeColor=#FFFFFF;fillColor=#08C6AB;" vertex="1" connectable="0" parent="jPB4N90SwIAx0oUlpZZX-70">
          <mxGeometry width="40" height="10" as="geometry" />
        </mxCell>
        <mxCell id="jPB4N90SwIAx0oUlpZZX-72" value="" style="rounded=0;whiteSpace=wrap;html=1;fontSize=20;fontColor=#212B38;strokeColor=#FFFFFF;fillColor=#08C6AB;" vertex="1" parent="jPB4N90SwIAx0oUlpZZX-71">
          <mxGeometry width="10" height="10" as="geometry" />
        </mxCell>
        <mxCell id="jPB4N90SwIAx0oUlpZZX-73" value="" style="rounded=0;whiteSpace=wrap;html=1;fontSize=20;fontColor=#212B38;strokeColor=#FFFFFF;fillColor=#08C6AB;" vertex="1" parent="jPB4N90SwIAx0oUlpZZX-71">
          <mxGeometry x="10" width="10" height="10" as="geometry" />
        </mxCell>
        <mxCell id="jPB4N90SwIAx0oUlpZZX-74" value="" style="rounded=0;whiteSpace=wrap;html=1;fontSize=20;fontColor=#212B38;strokeColor=#FFFFFF;fillColor=#08C6AB;" vertex="1" parent="jPB4N90SwIAx0oUlpZZX-71">
          <mxGeometry x="20" width="10" height="10" as="geometry" />
        </mxCell>
        <mxCell id="jPB4N90SwIAx0oUlpZZX-75" value="" style="rounded=0;whiteSpace=wrap;html=1;fontSize=20;fontColor=#212B38;strokeColor=#FFFFFF;fillColor=#08C6AB;" vertex="1" parent="jPB4N90SwIAx0oUlpZZX-71">
          <mxGeometry x="30" width="10" height="10" as="geometry" />
        </mxCell>
        <mxCell id="jPB4N90SwIAx0oUlpZZX-76" value="" style="rounded=0;whiteSpace=wrap;html=1;fontSize=20;fontColor=#212B38;strokeColor=#FFFFFF;fillColor=#08C6AB;" vertex="1" parent="jPB4N90SwIAx0oUlpZZX-70">
          <mxGeometry x="40" width="10" height="10" as="geometry" />
        </mxCell>
        <mxCell id="jPB4N90SwIAx0oUlpZZX-78" value="" style="group;strokeColor=#FFFFFF;fillColor=#08C6AB;" vertex="1" connectable="0" parent="1">
          <mxGeometry x="600" y="410" width="100" height="20" as="geometry" />
        </mxCell>
        <mxCell id="jPB4N90SwIAx0oUlpZZX-37" value="" style="group;strokeColor=#FFFFFF;fillColor=#08C6AB;" vertex="1" connectable="0" parent="jPB4N90SwIAx0oUlpZZX-78">
          <mxGeometry width="80" height="20" as="geometry" />
        </mxCell>
        <mxCell id="jPB4N90SwIAx0oUlpZZX-29" value="" style="rounded=0;whiteSpace=wrap;html=1;fontSize=20;fontColor=#212B38;strokeColor=#FFFFFF;fillColor=#08C6AB;" vertex="1" parent="jPB4N90SwIAx0oUlpZZX-37">
          <mxGeometry width="20" height="20" as="geometry" />
        </mxCell>
        <mxCell id="jPB4N90SwIAx0oUlpZZX-34" value="" style="rounded=0;whiteSpace=wrap;html=1;fontSize=20;fontColor=#212B38;strokeColor=#FFFFFF;fillColor=#08C6AB;" vertex="1" parent="jPB4N90SwIAx0oUlpZZX-37">
          <mxGeometry x="20" width="20" height="20" as="geometry" />
        </mxCell>
        <mxCell id="jPB4N90SwIAx0oUlpZZX-35" value="" style="rounded=0;whiteSpace=wrap;html=1;fontSize=20;fontColor=#212B38;strokeColor=#FFFFFF;fillColor=#08C6AB;" vertex="1" parent="jPB4N90SwIAx0oUlpZZX-37">
          <mxGeometry x="40" width="20" height="20" as="geometry" />
        </mxCell>
        <mxCell id="jPB4N90SwIAx0oUlpZZX-36" value="" style="rounded=0;whiteSpace=wrap;html=1;fontSize=20;fontColor=#212B38;strokeColor=#FFFFFF;fillColor=#08C6AB;" vertex="1" parent="jPB4N90SwIAx0oUlpZZX-37">
          <mxGeometry x="60" width="20" height="20" as="geometry" />
        </mxCell>
        <mxCell id="jPB4N90SwIAx0oUlpZZX-77" value="" style="rounded=0;whiteSpace=wrap;html=1;fontSize=20;fontColor=#212B38;strokeColor=#FFFFFF;fillColor=#08C6AB;" vertex="1" parent="jPB4N90SwIAx0oUlpZZX-78">
          <mxGeometry x="80" width="20" height="20" as="geometry" />
        </mxCell>
        <mxCell id="jPB4N90SwIAx0oUlpZZX-79" value="&lt;i&gt;&lt;font style=&quot;font-size: 10px&quot;&gt;(hidden_size)&lt;/font&gt;&lt;/i&gt;" style="text;html=1;strokeColor=none;fillColor=none;align=center;verticalAlign=middle;whiteSpace=wrap;rounded=0;fontSize=20;fontColor=#212B38;" vertex="1" parent="1">
          <mxGeometry x="615" y="440" width="70" height="30" as="geometry" />
        </mxCell>
        <mxCell id="jPB4N90SwIAx0oUlpZZX-80" value="" style="group;fillColor=#08C6AB;strokeColor=#FFFFFF;" vertex="1" connectable="0" parent="1">
          <mxGeometry x="140" y="340" width="50" height="10" as="geometry" />
        </mxCell>
        <mxCell id="jPB4N90SwIAx0oUlpZZX-81" value="" style="group;fillColor=#08C6AB;strokeColor=#FFFFFF;" vertex="1" connectable="0" parent="jPB4N90SwIAx0oUlpZZX-80">
          <mxGeometry width="40" height="10" as="geometry" />
        </mxCell>
        <mxCell id="jPB4N90SwIAx0oUlpZZX-82" value="" style="rounded=0;whiteSpace=wrap;html=1;fontSize=20;fontColor=#212B38;fillColor=#08C6AB;strokeColor=#FFFFFF;" vertex="1" parent="jPB4N90SwIAx0oUlpZZX-81">
          <mxGeometry width="10" height="10" as="geometry" />
        </mxCell>
        <mxCell id="jPB4N90SwIAx0oUlpZZX-83" value="" style="rounded=0;whiteSpace=wrap;html=1;fontSize=20;fontColor=#212B38;fillColor=#08C6AB;strokeColor=#FFFFFF;" vertex="1" parent="jPB4N90SwIAx0oUlpZZX-81">
          <mxGeometry x="10" width="10" height="10" as="geometry" />
        </mxCell>
        <mxCell id="jPB4N90SwIAx0oUlpZZX-84" value="" style="rounded=0;whiteSpace=wrap;html=1;fontSize=20;fontColor=#212B38;fillColor=#08C6AB;strokeColor=#FFFFFF;" vertex="1" parent="jPB4N90SwIAx0oUlpZZX-81">
          <mxGeometry x="20" width="10" height="10" as="geometry" />
        </mxCell>
        <mxCell id="jPB4N90SwIAx0oUlpZZX-85" value="" style="rounded=0;whiteSpace=wrap;html=1;fontSize=20;fontColor=#212B38;fillColor=#08C6AB;strokeColor=#FFFFFF;" vertex="1" parent="jPB4N90SwIAx0oUlpZZX-81">
          <mxGeometry x="30" width="10" height="10" as="geometry" />
        </mxCell>
        <mxCell id="jPB4N90SwIAx0oUlpZZX-86" value="" style="rounded=0;whiteSpace=wrap;html=1;fontSize=20;fontColor=#212B38;fillColor=#08C6AB;strokeColor=#FFFFFF;" vertex="1" parent="jPB4N90SwIAx0oUlpZZX-80">
          <mxGeometry x="40" width="10" height="10" as="geometry" />
        </mxCell>
        <mxCell id="jPB4N90SwIAx0oUlpZZX-87" value="" style="group;fillColor=#08C6AB;strokeColor=#FFFFFF;" vertex="1" connectable="0" parent="1">
          <mxGeometry x="200" y="340" width="50" height="10" as="geometry" />
        </mxCell>
        <mxCell id="jPB4N90SwIAx0oUlpZZX-88" value="" style="group;fillColor=#08C6AB;strokeColor=#FFFFFF;" vertex="1" connectable="0" parent="jPB4N90SwIAx0oUlpZZX-87">
          <mxGeometry width="40" height="10" as="geometry" />
        </mxCell>
        <mxCell id="jPB4N90SwIAx0oUlpZZX-89" value="" style="rounded=0;whiteSpace=wrap;html=1;fontSize=20;fontColor=#212B38;fillColor=#08C6AB;strokeColor=#FFFFFF;" vertex="1" parent="jPB4N90SwIAx0oUlpZZX-88">
          <mxGeometry width="10" height="10" as="geometry" />
        </mxCell>
        <mxCell id="jPB4N90SwIAx0oUlpZZX-90" value="" style="rounded=0;whiteSpace=wrap;html=1;fontSize=20;fontColor=#212B38;fillColor=#08C6AB;strokeColor=#FFFFFF;" vertex="1" parent="jPB4N90SwIAx0oUlpZZX-88">
          <mxGeometry x="10" width="10" height="10" as="geometry" />
        </mxCell>
        <mxCell id="jPB4N90SwIAx0oUlpZZX-91" value="" style="rounded=0;whiteSpace=wrap;html=1;fontSize=20;fontColor=#212B38;fillColor=#08C6AB;strokeColor=#FFFFFF;" vertex="1" parent="jPB4N90SwIAx0oUlpZZX-88">
          <mxGeometry x="20" width="10" height="10" as="geometry" />
        </mxCell>
        <mxCell id="jPB4N90SwIAx0oUlpZZX-92" value="" style="rounded=0;whiteSpace=wrap;html=1;fontSize=20;fontColor=#212B38;fillColor=#08C6AB;strokeColor=#FFFFFF;" vertex="1" parent="jPB4N90SwIAx0oUlpZZX-88">
          <mxGeometry x="30" width="10" height="10" as="geometry" />
        </mxCell>
        <mxCell id="jPB4N90SwIAx0oUlpZZX-93" value="" style="rounded=0;whiteSpace=wrap;html=1;fontSize=20;fontColor=#212B38;fillColor=#08C6AB;strokeColor=#FFFFFF;" vertex="1" parent="jPB4N90SwIAx0oUlpZZX-87">
          <mxGeometry x="40" width="10" height="10" as="geometry" />
        </mxCell>
        <mxCell id="jPB4N90SwIAx0oUlpZZX-94" value="" style="group;fillColor=#08C6AB;strokeColor=#FFFFFF;" vertex="1" connectable="0" parent="1">
          <mxGeometry x="260" y="340" width="50" height="10" as="geometry" />
        </mxCell>
        <mxCell id="jPB4N90SwIAx0oUlpZZX-95" value="" style="group;fillColor=#08C6AB;strokeColor=#FFFFFF;" vertex="1" connectable="0" parent="jPB4N90SwIAx0oUlpZZX-94">
          <mxGeometry width="40" height="10" as="geometry" />
        </mxCell>
        <mxCell id="jPB4N90SwIAx0oUlpZZX-96" value="" style="rounded=0;whiteSpace=wrap;html=1;fontSize=20;fontColor=#212B38;fillColor=#08C6AB;strokeColor=#FFFFFF;" vertex="1" parent="jPB4N90SwIAx0oUlpZZX-95">
          <mxGeometry width="10" height="10" as="geometry" />
        </mxCell>
        <mxCell id="jPB4N90SwIAx0oUlpZZX-97" value="" style="rounded=0;whiteSpace=wrap;html=1;fontSize=20;fontColor=#212B38;fillColor=#08C6AB;strokeColor=#FFFFFF;" vertex="1" parent="jPB4N90SwIAx0oUlpZZX-95">
          <mxGeometry x="10" width="10" height="10" as="geometry" />
        </mxCell>
        <mxCell id="jPB4N90SwIAx0oUlpZZX-98" value="" style="rounded=0;whiteSpace=wrap;html=1;fontSize=20;fontColor=#212B38;fillColor=#08C6AB;strokeColor=#FFFFFF;" vertex="1" parent="jPB4N90SwIAx0oUlpZZX-95">
          <mxGeometry x="20" width="10" height="10" as="geometry" />
        </mxCell>
        <mxCell id="jPB4N90SwIAx0oUlpZZX-99" value="" style="rounded=0;whiteSpace=wrap;html=1;fontSize=20;fontColor=#212B38;fillColor=#08C6AB;strokeColor=#FFFFFF;" vertex="1" parent="jPB4N90SwIAx0oUlpZZX-95">
          <mxGeometry x="30" width="10" height="10" as="geometry" />
        </mxCell>
        <mxCell id="jPB4N90SwIAx0oUlpZZX-100" value="" style="rounded=0;whiteSpace=wrap;html=1;fontSize=20;fontColor=#212B38;fillColor=#08C6AB;strokeColor=#FFFFFF;" vertex="1" parent="jPB4N90SwIAx0oUlpZZX-94">
          <mxGeometry x="40" width="10" height="10" as="geometry" />
        </mxCell>
        <mxCell id="jPB4N90SwIAx0oUlpZZX-101" value="" style="group;fillColor=#08C6AB;strokeColor=#FFFFFF;" vertex="1" connectable="0" parent="1">
          <mxGeometry x="320" y="340" width="50" height="10" as="geometry" />
        </mxCell>
        <mxCell id="jPB4N90SwIAx0oUlpZZX-102" value="" style="group;fillColor=#08C6AB;strokeColor=#FFFFFF;" vertex="1" connectable="0" parent="jPB4N90SwIAx0oUlpZZX-101">
          <mxGeometry width="40" height="10" as="geometry" />
        </mxCell>
        <mxCell id="jPB4N90SwIAx0oUlpZZX-103" value="" style="rounded=0;whiteSpace=wrap;html=1;fontSize=20;fontColor=#212B38;fillColor=#08C6AB;strokeColor=#FFFFFF;" vertex="1" parent="jPB4N90SwIAx0oUlpZZX-102">
          <mxGeometry width="10" height="10" as="geometry" />
        </mxCell>
        <mxCell id="jPB4N90SwIAx0oUlpZZX-104" value="" style="rounded=0;whiteSpace=wrap;html=1;fontSize=20;fontColor=#212B38;fillColor=#08C6AB;strokeColor=#FFFFFF;" vertex="1" parent="jPB4N90SwIAx0oUlpZZX-102">
          <mxGeometry x="10" width="10" height="10" as="geometry" />
        </mxCell>
        <mxCell id="jPB4N90SwIAx0oUlpZZX-105" value="" style="rounded=0;whiteSpace=wrap;html=1;fontSize=20;fontColor=#212B38;fillColor=#08C6AB;strokeColor=#FFFFFF;" vertex="1" parent="jPB4N90SwIAx0oUlpZZX-102">
          <mxGeometry x="20" width="10" height="10" as="geometry" />
        </mxCell>
        <mxCell id="jPB4N90SwIAx0oUlpZZX-106" value="" style="rounded=0;whiteSpace=wrap;html=1;fontSize=20;fontColor=#212B38;fillColor=#08C6AB;strokeColor=#FFFFFF;" vertex="1" parent="jPB4N90SwIAx0oUlpZZX-102">
          <mxGeometry x="30" width="10" height="10" as="geometry" />
        </mxCell>
        <mxCell id="jPB4N90SwIAx0oUlpZZX-107" value="" style="rounded=0;whiteSpace=wrap;html=1;fontSize=20;fontColor=#212B38;fillColor=#08C6AB;strokeColor=#FFFFFF;" vertex="1" parent="jPB4N90SwIAx0oUlpZZX-101">
          <mxGeometry x="40" width="10" height="10" as="geometry" />
        </mxCell>
        <mxCell id="jPB4N90SwIAx0oUlpZZX-109" value="" style="group;fillColor=#08C6AB;strokeColor=#FFFFFF;" vertex="1" connectable="0" parent="1">
          <mxGeometry x="490" y="340" width="50" height="10" as="geometry" />
        </mxCell>
        <mxCell id="jPB4N90SwIAx0oUlpZZX-110" value="" style="group;fillColor=#08C6AB;strokeColor=#FFFFFF;" vertex="1" connectable="0" parent="jPB4N90SwIAx0oUlpZZX-109">
          <mxGeometry width="40" height="10" as="geometry" />
        </mxCell>
        <mxCell id="jPB4N90SwIAx0oUlpZZX-111" value="" style="rounded=0;whiteSpace=wrap;html=1;fontSize=20;fontColor=#212B38;fillColor=#08C6AB;strokeColor=#FFFFFF;" vertex="1" parent="jPB4N90SwIAx0oUlpZZX-110">
          <mxGeometry width="10" height="10" as="geometry" />
        </mxCell>
        <mxCell id="jPB4N90SwIAx0oUlpZZX-112" value="" style="rounded=0;whiteSpace=wrap;html=1;fontSize=20;fontColor=#212B38;fillColor=#08C6AB;strokeColor=#FFFFFF;" vertex="1" parent="jPB4N90SwIAx0oUlpZZX-110">
          <mxGeometry x="10" width="10" height="10" as="geometry" />
        </mxCell>
        <mxCell id="jPB4N90SwIAx0oUlpZZX-113" value="" style="rounded=0;whiteSpace=wrap;html=1;fontSize=20;fontColor=#212B38;fillColor=#08C6AB;strokeColor=#FFFFFF;" vertex="1" parent="jPB4N90SwIAx0oUlpZZX-110">
          <mxGeometry x="20" width="10" height="10" as="geometry" />
        </mxCell>
        <mxCell id="jPB4N90SwIAx0oUlpZZX-114" value="" style="rounded=0;whiteSpace=wrap;html=1;fontSize=20;fontColor=#212B38;fillColor=#08C6AB;strokeColor=#FFFFFF;" vertex="1" parent="jPB4N90SwIAx0oUlpZZX-110">
          <mxGeometry x="30" width="10" height="10" as="geometry" />
        </mxCell>
        <mxCell id="jPB4N90SwIAx0oUlpZZX-115" value="" style="rounded=0;whiteSpace=wrap;html=1;fontSize=20;fontColor=#212B38;fillColor=#08C6AB;strokeColor=#FFFFFF;" vertex="1" parent="jPB4N90SwIAx0oUlpZZX-109">
          <mxGeometry x="40" width="10" height="10" as="geometry" />
        </mxCell>
        <mxCell id="jPB4N90SwIAx0oUlpZZX-116" value="&lt;font style=&quot;font-size: 11px;&quot;&gt;&lt;i style=&quot;font-size: 11px;&quot;&gt;last_hidden_state&lt;/i&gt; tensor&lt;/font&gt;" style="rounded=0;whiteSpace=wrap;html=1;fontSize=11;dashed=1;" vertex="1" parent="1">
          <mxGeometry x="140" y="270" width="400" height="30" as="geometry" />
        </mxCell>
        <mxCell id="jPB4N90SwIAx0oUlpZZX-117" value="" style="endArrow=none;dashed=1;html=1;fontSize=11;fontColor=#212B38;strokeColor=#212B38;entryX=0;entryY=0;entryDx=0;entryDy=0;exitX=0;exitY=1;exitDx=0;exitDy=0;" edge="1" parent="1" source="jPB4N90SwIAx0oUlpZZX-116" target="jPB4N90SwIAx0oUlpZZX-82">
          <mxGeometry width="50" height="50" relative="1" as="geometry">
            <mxPoint x="310" y="410" as="sourcePoint" />
            <mxPoint x="360" y="360" as="targetPoint" />
          </mxGeometry>
        </mxCell>
        <mxCell id="jPB4N90SwIAx0oUlpZZX-118" value="" style="endArrow=none;dashed=1;html=1;fontSize=11;fontColor=#212B38;strokeColor=#212B38;entryX=1;entryY=0;entryDx=0;entryDy=0;exitX=0.025;exitY=1.09;exitDx=0;exitDy=0;exitPerimeter=0;" edge="1" parent="1" source="jPB4N90SwIAx0oUlpZZX-116" target="jPB4N90SwIAx0oUlpZZX-86">
          <mxGeometry width="50" height="50" relative="1" as="geometry">
            <mxPoint x="310" y="410" as="sourcePoint" />
            <mxPoint x="360" y="360" as="targetPoint" />
          </mxGeometry>
        </mxCell>
        <mxCell id="jPB4N90SwIAx0oUlpZZX-119" value="" style="endArrow=none;dashed=1;html=1;fontSize=11;fontColor=#212B38;strokeColor=#212B38;entryX=0;entryY=0;entryDx=0;entryDy=0;exitX=0.022;exitY=1.036;exitDx=0;exitDy=0;exitPerimeter=0;" edge="1" parent="1" source="jPB4N90SwIAx0oUlpZZX-116" target="jPB4N90SwIAx0oUlpZZX-89">
          <mxGeometry width="50" height="50" relative="1" as="geometry">
            <mxPoint x="160" y="312.70000000000005" as="sourcePoint" />
            <mxPoint x="200" y="350" as="targetPoint" />
          </mxGeometry>
        </mxCell>
        <mxCell id="jPB4N90SwIAx0oUlpZZX-120" value="" style="endArrow=none;dashed=1;html=1;fontSize=11;fontColor=#212B38;strokeColor=#212B38;entryX=1;entryY=0;entryDx=0;entryDy=0;exitX=0.049;exitY=1.027;exitDx=0;exitDy=0;exitPerimeter=0;" edge="1" parent="1" source="jPB4N90SwIAx0oUlpZZX-116" target="jPB4N90SwIAx0oUlpZZX-93">
          <mxGeometry width="50" height="50" relative="1" as="geometry">
            <mxPoint x="158.8" y="311.08000000000004" as="sourcePoint" />
            <mxPoint x="210" y="350" as="targetPoint" />
          </mxGeometry>
        </mxCell>
        <mxCell id="jPB4N90SwIAx0oUlpZZX-121" value="" style="endArrow=classic;startArrow=classic;html=1;fontSize=11;fontColor=#212B38;strokeColor=#212B38;" edge="1" parent="1">
          <mxGeometry width="50" height="50" relative="1" as="geometry">
            <mxPoint x="560" y="300" as="sourcePoint" />
            <mxPoint x="560" y="270" as="targetPoint" />
          </mxGeometry>
        </mxCell>
        <mxCell id="jPB4N90SwIAx0oUlpZZX-122" value="&lt;font style=&quot;font-size: 8px;&quot;&gt;768&lt;/font&gt;" style="edgeLabel;html=1;align=center;verticalAlign=middle;resizable=0;points=[];fontSize=8;fontColor=#212B38;" vertex="1" connectable="0" parent="jPB4N90SwIAx0oUlpZZX-121">
          <mxGeometry x="0.1972" relative="1" as="geometry">
            <mxPoint y="3" as="offset" />
          </mxGeometry>
        </mxCell>
        <mxCell id="jPB4N90SwIAx0oUlpZZX-123" value="" style="endArrow=none;dashed=1;html=1;dashPattern=1 3;strokeWidth=1;fontSize=12;fontColor=#212B38;entryX=0;entryY=0;entryDx=0;entryDy=0;exitX=1;exitY=0;exitDx=0;exitDy=0;" edge="1" parent="1" source="jPB4N90SwIAx0oUlpZZX-76" target="jPB4N90SwIAx0oUlpZZX-29">
          <mxGeometry width="50" height="50" relative="1" as="geometry">
            <mxPoint x="480" y="550" as="sourcePoint" />
            <mxPoint x="530" y="500" as="targetPoint" />
          </mxGeometry>
        </mxCell>
        <mxCell id="jPB4N90SwIAx0oUlpZZX-124" value="" style="endArrow=none;dashed=1;html=1;dashPattern=1 3;strokeWidth=1;fontSize=12;fontColor=#212B38;exitX=1;exitY=1;exitDx=0;exitDy=0;" edge="1" parent="1" source="jPB4N90SwIAx0oUlpZZX-76">
          <mxGeometry width="50" height="50" relative="1" as="geometry">
            <mxPoint x="550" y="500" as="sourcePoint" />
            <mxPoint x="600" y="430" as="targetPoint" />
          </mxGeometry>
        </mxCell>
        <mxCell id="jPB4N90SwIAx0oUlpZZX-126" value="" style="endArrow=classic;startArrow=classic;html=1;fontSize=12;fontColor=#212B38;strokeColor=#212B38;strokeWidth=1;" edge="1" parent="1">
          <mxGeometry width="50" height="50" relative="1" as="geometry">
            <mxPoint x="140" y="260" as="sourcePoint" />
            <mxPoint x="540" y="260" as="targetPoint" />
          </mxGeometry>
        </mxCell>
        <mxCell id="jPB4N90SwIAx0oUlpZZX-127" value="512" style="edgeLabel;html=1;align=center;verticalAlign=middle;resizable=0;points=[];fontSize=10;fontColor=#212B38;" vertex="1" connectable="0" parent="jPB4N90SwIAx0oUlpZZX-126">
          <mxGeometry x="0.0372" y="-1" relative="1" as="geometry">
            <mxPoint x="-7" y="-1" as="offset" />
          </mxGeometry>
        </mxCell>
        <mxCell id="jPB4N90SwIAx0oUlpZZX-128" value="" style="endArrow=none;dashed=1;html=1;fontSize=11;fontColor=#212B38;strokeColor=#212B38;entryX=0;entryY=0;entryDx=0;entryDy=0;exitX=0.051;exitY=1.017;exitDx=0;exitDy=0;exitPerimeter=0;" edge="1" parent="1" source="jPB4N90SwIAx0oUlpZZX-116" target="jPB4N90SwIAx0oUlpZZX-96">
          <mxGeometry width="50" height="50" relative="1" as="geometry">
            <mxPoint x="169.60000000000002" y="310.81000000000006" as="sourcePoint" />
            <mxPoint x="260" y="350" as="targetPoint" />
          </mxGeometry>
        </mxCell>
        <mxCell id="jPB4N90SwIAx0oUlpZZX-129" value="" style="endArrow=none;dashed=1;html=1;fontSize=11;fontColor=#212B38;strokeColor=#212B38;entryX=1;entryY=0;entryDx=0;entryDy=0;exitX=0.074;exitY=1.027;exitDx=0;exitDy=0;exitPerimeter=0;" edge="1" parent="1" source="jPB4N90SwIAx0oUlpZZX-116" target="jPB4N90SwIAx0oUlpZZX-100">
          <mxGeometry width="50" height="50" relative="1" as="geometry">
            <mxPoint x="170.39999999999998" y="310.51" as="sourcePoint" />
            <mxPoint x="270" y="350" as="targetPoint" />
          </mxGeometry>
        </mxCell>
        <mxCell id="jPB4N90SwIAx0oUlpZZX-130" value="" style="endArrow=none;dashed=1;html=1;fontSize=11;fontColor=#212B38;strokeColor=#212B38;entryX=0;entryY=0;entryDx=0;entryDy=0;" edge="1" parent="1" target="jPB4N90SwIAx0oUlpZZX-103">
          <mxGeometry width="50" height="50" relative="1" as="geometry">
            <mxPoint x="170" y="300" as="sourcePoint" />
            <mxPoint x="280" y="360" as="targetPoint" />
          </mxGeometry>
        </mxCell>
        <mxCell id="jPB4N90SwIAx0oUlpZZX-131" value="" style="endArrow=none;dashed=1;html=1;fontSize=11;fontColor=#212B38;strokeColor=#212B38;entryX=1;entryY=0;entryDx=0;entryDy=0;" edge="1" parent="1" target="jPB4N90SwIAx0oUlpZZX-107">
          <mxGeometry width="50" height="50" relative="1" as="geometry">
            <mxPoint x="180" y="300" as="sourcePoint" />
            <mxPoint x="290" y="370" as="targetPoint" />
          </mxGeometry>
        </mxCell>
        <mxCell id="jPB4N90SwIAx0oUlpZZX-132" value="" style="endArrow=none;dashed=1;html=1;fontSize=11;fontColor=#212B38;strokeColor=#212B38;exitX=0;exitY=0;exitDx=0;exitDy=0;entryX=0.975;entryY=1.013;entryDx=0;entryDy=0;entryPerimeter=0;" edge="1" parent="1" source="jPB4N90SwIAx0oUlpZZX-111" target="jPB4N90SwIAx0oUlpZZX-116">
          <mxGeometry width="50" height="50" relative="1" as="geometry">
            <mxPoint x="200.39999999999998" y="340.51" as="sourcePoint" />
            <mxPoint x="470" y="310" as="targetPoint" />
          </mxGeometry>
        </mxCell>
        <mxCell id="jPB4N90SwIAx0oUlpZZX-133" value="" style="endArrow=none;dashed=1;html=1;fontSize=11;fontColor=#212B38;strokeColor=#212B38;exitX=1;exitY=0;exitDx=0;exitDy=0;entryX=1;entryY=1;entryDx=0;entryDy=0;" edge="1" parent="1" source="jPB4N90SwIAx0oUlpZZX-115" target="jPB4N90SwIAx0oUlpZZX-116">
          <mxGeometry width="50" height="50" relative="1" as="geometry">
            <mxPoint x="500" y="350" as="sourcePoint" />
            <mxPoint x="540" y="310.39" as="targetPoint" />
          </mxGeometry>
        </mxCell>
        <mxCell id="jPB4N90SwIAx0oUlpZZX-134" value="1" style="text;html=1;strokeColor=none;fillColor=none;align=center;verticalAlign=middle;whiteSpace=wrap;rounded=0;fontSize=8;" vertex="1" parent="1">
          <mxGeometry x="134" y="596.5" width="10" height="13" as="geometry" />
        </mxCell>
        <mxCell id="jPB4N90SwIAx0oUlpZZX-135" value="2" style="text;html=1;strokeColor=none;fillColor=none;align=center;verticalAlign=middle;whiteSpace=wrap;rounded=0;fontSize=8;" vertex="1" parent="1">
          <mxGeometry x="203" y="596.5" width="10" height="13" as="geometry" />
        </mxCell>
        <mxCell id="jPB4N90SwIAx0oUlpZZX-136" value="3" style="text;html=1;strokeColor=none;fillColor=none;align=center;verticalAlign=middle;whiteSpace=wrap;rounded=0;fontSize=8;" vertex="1" parent="1">
          <mxGeometry x="254" y="596.5" width="10" height="13" as="geometry" />
        </mxCell>
        <mxCell id="jPB4N90SwIAx0oUlpZZX-137" value="4" style="text;html=1;strokeColor=none;fillColor=none;align=center;verticalAlign=middle;whiteSpace=wrap;rounded=0;fontSize=8;" vertex="1" parent="1">
          <mxGeometry x="327" y="596.5" width="10" height="13" as="geometry" />
        </mxCell>
        <mxCell id="jPB4N90SwIAx0oUlpZZX-138" value="512" style="text;html=1;strokeColor=none;fillColor=none;align=center;verticalAlign=middle;whiteSpace=wrap;rounded=0;fontSize=8;" vertex="1" parent="1">
          <mxGeometry x="480" y="596.5" width="14" height="13" as="geometry" />
        </mxCell>
        <mxCell id="jPB4N90SwIAx0oUlpZZX-141" style="edgeStyle=orthogonalEdgeStyle;rounded=0;orthogonalLoop=1;jettySize=auto;html=1;exitX=0.5;exitY=0;exitDx=0;exitDy=0;entryX=0.5;entryY=1;entryDx=0;entryDy=0;fontSize=12;fontColor=#212B38;strokeColor=#212B38;strokeWidth=1;" edge="1" parent="1" source="jPB4N90SwIAx0oUlpZZX-139" target="jPB4N90SwIAx0oUlpZZX-12">
          <mxGeometry relative="1" as="geometry">
            <Array as="points">
              <mxPoint x="340" y="630" />
              <mxPoint x="165" y="630" />
            </Array>
          </mxGeometry>
        </mxCell>
        <mxCell id="jPB4N90SwIAx0oUlpZZX-142" style="edgeStyle=orthogonalEdgeStyle;rounded=0;orthogonalLoop=1;jettySize=auto;html=1;exitX=0.5;exitY=0;exitDx=0;exitDy=0;entryX=0.5;entryY=1;entryDx=0;entryDy=0;fontSize=12;fontColor=#212B38;strokeColor=#212B38;strokeWidth=1;" edge="1" parent="1" source="jPB4N90SwIAx0oUlpZZX-139" target="jPB4N90SwIAx0oUlpZZX-13">
          <mxGeometry relative="1" as="geometry">
            <Array as="points">
              <mxPoint x="340" y="630" />
              <mxPoint x="225" y="630" />
            </Array>
          </mxGeometry>
        </mxCell>
        <mxCell id="jPB4N90SwIAx0oUlpZZX-143" style="edgeStyle=orthogonalEdgeStyle;rounded=0;orthogonalLoop=1;jettySize=auto;html=1;exitX=0.5;exitY=0;exitDx=0;exitDy=0;entryX=0.5;entryY=1;entryDx=0;entryDy=0;fontSize=12;fontColor=#212B38;strokeColor=#212B38;strokeWidth=1;" edge="1" parent="1" source="jPB4N90SwIAx0oUlpZZX-139" target="jPB4N90SwIAx0oUlpZZX-14">
          <mxGeometry relative="1" as="geometry">
            <Array as="points">
              <mxPoint x="340" y="630" />
              <mxPoint x="285" y="630" />
            </Array>
          </mxGeometry>
        </mxCell>
        <mxCell id="jPB4N90SwIAx0oUlpZZX-144" style="edgeStyle=orthogonalEdgeStyle;rounded=0;orthogonalLoop=1;jettySize=auto;html=1;exitX=0.5;exitY=0;exitDx=0;exitDy=0;entryX=0.5;entryY=1;entryDx=0;entryDy=0;fontSize=12;fontColor=#212B38;strokeColor=#212B38;strokeWidth=1;" edge="1" parent="1" source="jPB4N90SwIAx0oUlpZZX-139" target="jPB4N90SwIAx0oUlpZZX-15">
          <mxGeometry relative="1" as="geometry">
            <Array as="points">
              <mxPoint x="340" y="630" />
              <mxPoint x="345" y="630" />
            </Array>
          </mxGeometry>
        </mxCell>
        <mxCell id="jPB4N90SwIAx0oUlpZZX-145" style="edgeStyle=orthogonalEdgeStyle;rounded=0;orthogonalLoop=1;jettySize=auto;html=1;exitX=0.5;exitY=0;exitDx=0;exitDy=0;entryX=0.5;entryY=1;entryDx=0;entryDy=0;fontSize=12;fontColor=#212B38;strokeWidth=1;strokeColor=#212B38;" edge="1" parent="1" source="jPB4N90SwIAx0oUlpZZX-139" target="jPB4N90SwIAx0oUlpZZX-16">
          <mxGeometry relative="1" as="geometry">
            <Array as="points">
              <mxPoint x="340" y="630" />
              <mxPoint x="515" y="630" />
            </Array>
          </mxGeometry>
        </mxCell>
        <mxCell id="jPB4N90SwIAx0oUlpZZX-139" value="Tokenizer" style="rounded=1;whiteSpace=wrap;html=1;fontSize=12;fontColor=#212B38;strokeColor=#212B38;" vertex="1" parent="1">
          <mxGeometry x="140" y="640" width="400" height="30" as="geometry" />
        </mxCell>
      </root>
    </mxGraphModel>
  </diagram>
</mxfile>
